<svg width="20" height="18" viewBox="0 0 20 18" fill="none" xmlns="http://www.w3.org/2000/svg">
<path d="M4.16666 7.5V17.5H0.833328V7.5H4.16666ZM7.5 17.5C7.05797 17.5 6.63404 17.3244 6.32148 17.0118C6.00892 16.6993 5.83333 16.2754 5.83333 15.8333V7.5C5.83333 7.04167 6.01666 6.625 6.325 6.325L11.8083 0.833332L12.6917 1.71667C12.9167 1.94167 13.0583 2.25 13.0583 2.59167L13.0333 2.85833L12.2417 6.66667H17.5C18.425 6.66667 19.1667 7.41667 19.1667 8.33333V10C19.1667 10.2167 19.125 10.4167 19.05 10.6083L16.5333 16.4833C16.2833 17.0833 15.6917 17.5 15 17.5H7.5ZM7.5 15.8333H15.025L17.5 10V8.33333H10.175L11.1167 3.9L7.5 7.525V15.8333Z" fill="white"/>
</svg>
