<svg width="20" height="18" viewBox="0 0 20 18" fill="none" xmlns="http://www.w3.org/2000/svg">
<path d="M19.1666 8.33331C19.1666 7.40831 18.4166 6.66665 17.5 6.66665H12.2333L13.0333 2.85831C13.05 2.77498 13.0583 2.68331 13.0583 2.59165C13.0583 2.24998 12.9166 1.93331 12.6916 1.70831L11.8083 0.833313L6.32498 6.31665C6.01665 6.62498 5.83331 7.04165 5.83331 7.49998V15.8333C5.83331 16.2753 6.00891 16.6993 6.32147 17.0118C6.63403 17.3244 7.05795 17.5 7.49998 17.5H15C15.6916 17.5 16.2833 17.0833 16.5333 16.4833L19.05 10.6083C19.125 10.4166 19.1666 10.2166 19.1666 9.99998V8.33331ZM0.833313 17.5H4.16665V7.49998H0.833313V17.5Z" fill="#00A1E7"/>
</svg>
