<svg width="19" height="19" viewBox="0 0 19 19" fill="none" xmlns="http://www.w3.org/2000/svg">
<path d="M18.3531 12.3545C16.7164 13.0127 14.9222 13.1753 13.1938 12.8222C11.4653 12.4691 9.87876 11.6158 8.63131 10.3683C7.38386 9.12086 6.53054 7.5343 6.17741 5.80584C5.82429 4.07738 5.98694 2.28326 6.64514 0.646484C4.70685 1.42722 3.1005 2.85787 2.10146 4.6932C1.10243 6.52854 0.772929 8.65423 1.16945 10.7059C1.56597 12.7575 2.66382 14.6074 4.27479 15.9383C5.88576 17.2692 7.90952 17.9982 9.99914 18.0005C11.7961 18.0005 13.5519 17.4629 15.0407 16.4567C16.5295 15.4505 17.6831 14.0218 18.3531 12.3545Z" stroke="white" stroke-linecap="round" stroke-linejoin="round"/>
</svg>
